<?xml version="1.0" encoding="UTF-8" standalone="no"?>
<svg
   clip-rule="evenodd"
   fill-rule="evenodd"
   height="60"
   stroke-linejoin="round"
   stroke-miterlimit="1.414"
   viewBox="-0.092 0.015 3059.98 2933.8307"
   width="60"
   version="1.1"
   id="svg12"
   sodipodi:docname="booking-com.svg"
   inkscape:version="1.2.2 (b0a84865, 2022-12-01)"
   xmlns:inkscape="http://www.inkscape.org/namespaces/inkscape"
   xmlns:sodipodi="http://sodipodi.sourceforge.net/DTD/sodipodi-0.dtd"
   xmlns="http://www.w3.org/2000/svg"
   xmlns:svg="http://www.w3.org/2000/svg">
  <defs
     id="defs16" />
  <sodipodi:namedview
     id="namedview14"
     pagecolor="#ffffff"
     bordercolor="#000000"
     borderopacity="0.25"
     inkscape:showpageshadow="2"
     inkscape:pageopacity="0.0"
     inkscape:pagecheckerboard="0"
     inkscape:deskcolor="#d1d1d1"
     showgrid="false"
     inkscape:zoom="4.8878288"
     inkscape:cx="22.197995"
     inkscape:cy="34.882564"
     inkscape:window-width="1381"
     inkscape:window-height="657"
     inkscape:window-x="-12"
     inkscape:window-y="63"
     inkscape:window-maximized="0"
     inkscape:current-layer="svg12" />
  <path
     id="path2"
     style="fill:#ffffff;fill-opacity:0;stroke:#ffffff;stroke-width:170.7578125;stroke-dasharray:none;stroke-opacity:1"
     d="m 676.95206,133.87801 c -283.13771,0 -513.11655,229.87551 -513.11655,513.01623 V 2292.8587 c 0,0.6269 0.0917,1.2307 0.0939,1.857 v 511.1571 h 512.98209 c 0.0144,0 0.0283,0 0.0427,0 H 2382.8418 c 283.1397,0 513.1187,-229.9506 513.1187,-513.0163 V 646.89424 c 0,-283.14072 -229.979,-513.01623 -513.1187,-513.01623 z" />
  <g
     fill-rule="nonzero"
     id="g10"
     style="fill:#00ffff;fill-opacity:1;stroke:#ffffff;stroke-opacity:1"
     transform="translate(163.92751,133.86346)">
    <path
       d="m 1241.6,1768.638 -220.052,-0.22 v -263.12 c 0,-56.22 21.808,-85.48 69.917,-92.165 h 150.136 c 107.068,0 176.328,67.507 176.328,176.766 0,112.219 -67.507,178.63 -176.328,178.739 z m -220.052,-709.694 v -69.26 c 0,-60.602 25.643,-89.424 81.862,-93.15 h 112.657 c 96.547,0 154.41,57.753 154.41,154.52 0,73.643 -39.671,159.67 -150.903,159.67 h -198.026 z m 501.037,262.574 -39.78,-22.356 34.74,-29.699 c 40.437,-34.74 108.163,-112.876 108.163,-247.67 0,-206.464 -160.109,-339.614 -407.888,-339.614 H 935.082 v -0.11 h -32.219 c -73.424,2.74 -132.273,62.466 -133.04,136.329 v 1171.499 h 453.586 c 275.396,0 453.148,-149.917 453.148,-382.135 0,-125.04 -57.424,-231.889 -153.972,-286.244"
       fill="#fff"
       id="path6"
       style="fill:#ffffff;fill-opacity:1;stroke:#ffffff;stroke-opacity:1" />
    <path
       d="m 1794.688,1828.066 c 0,-89.492 72.178,-161.894 161.107,-161.894 89.154,0 161.669,72.402 161.669,161.894 0,89.379 -72.515,161.894 -161.67,161.894 -88.928,0 -161.106,-72.515 -161.106,-161.894"
       fill="#00bafc"
       id="path8"
       style="fill:#ffffff;fill-opacity:1;stroke:#ffffff;stroke-opacity:1" />
  </g>
</svg>
