<svg xmlns="http://www.w3.org/2000/svg" xmlns:xlink="http://www.w3.org/1999/xlink" width="50" zoomAndPan="magnify" viewBox="0 0 37.5 37.499999" height="50" preserveAspectRatio="xMidYMid meet" version="1.0"><defs><clipPath id="fcf6438384"><path d="M 0.238281 3 L 36.988281 3 L 36.988281 34.398438 L 0.238281 34.398438 Z M 0.238281 3 " clip-rule="nonzero"/></clipPath></defs><g clip-path="url(#fcf6438384)"><path fill="#ffffff" d="M 34.90625 9.421875 L 25.347656 9.421875 C 25.039062 5.691406 21.777344 2.898438 18.054688 3.207031 C 14.734375 3.488281 12.128906 6.097656 11.847656 9.421875 L 2.320312 9.421875 C 1.265625 9.421875 0.394531 10.289062 0.367188 11.347656 L 0.367188 32.441406 C 0.367188 33.527344 1.234375 34.367188 2.320312 34.398438 L 34.90625 34.398438 C 35.992188 34.398438 36.832031 33.527344 36.859375 32.441406 L 36.859375 11.347656 C 36.832031 10.289062 35.960938 9.421875 34.90625 9.421875 Z M 1.484375 32.441406 L 1.484375 11.347656 C 1.484375 11.285156 1.484375 11.222656 1.511719 11.160156 L 13.648438 21.878906 L 1.484375 32.59375 C 1.484375 32.5625 1.484375 32.503906 1.484375 32.441406 Z M 18.613281 16.722656 C 22.152344 16.722656 25.066406 14.019531 25.347656 10.476562 L 34.84375 10.476562 L 19.265625 24.207031 C 18.890625 24.550781 18.304688 24.550781 17.929688 24.207031 L 2.351562 10.507812 L 11.847656 10.507812 C 12.15625 14.019531 15.074219 16.722656 18.613281 16.722656 Z M 14.484375 22.625 L 17.246094 25.046875 C 18.054688 25.730469 19.234375 25.730469 20.007812 25.046875 L 22.773438 22.625 L 34.875 33.308594 L 2.351562 33.308594 Z M 23.578125 21.878906 L 35.742188 11.160156 C 35.742188 11.222656 35.773438 11.285156 35.773438 11.347656 L 35.773438 32.441406 C 35.773438 32.503906 35.773438 32.5625 35.742188 32.625 Z M 18.613281 4.265625 C 21.746094 4.265625 24.292969 6.8125 24.292969 9.949219 C 24.292969 13.085938 21.746094 15.632812 18.613281 15.632812 C 15.480469 15.632812 12.933594 13.085938 12.933594 9.949219 C 12.933594 6.8125 15.480469 4.265625 18.613281 4.265625 Z M 18.613281 4.265625 " fill-opacity="1" fill-rule="nonzero"/></g><path fill="#ffffff" d="M 19.078125 6.222656 L 18.148438 6.222656 C 16.347656 6.222656 14.890625 7.679688 14.890625 9.484375 L 14.890625 10.414062 C 14.890625 12.214844 16.347656 13.675781 18.148438 13.675781 L 18.675781 13.675781 C 18.984375 13.675781 19.203125 13.429688 19.203125 13.117188 C 19.203125 12.808594 18.953125 12.558594 18.675781 12.558594 L 18.148438 12.558594 C 16.9375 12.558594 15.976562 11.59375 15.976562 10.382812 L 15.976562 9.453125 C 15.976562 8.242188 16.9375 7.277344 18.148438 7.277344 L 19.078125 7.277344 C 20.289062 7.277344 21.25 8.242188 21.25 9.453125 L 21.25 11.097656 C 21.25 11.253906 21.128906 11.378906 20.972656 11.378906 L 20.628906 11.378906 C 20.476562 11.378906 20.351562 11.253906 20.351562 11.097656 L 20.351562 9.578125 C 20.351562 8.800781 19.730469 8.179688 18.953125 8.179688 L 18.304688 8.179688 C 17.527344 8.179688 16.90625 8.800781 16.90625 9.578125 L 16.90625 10.230469 C 16.90625 11.003906 17.527344 11.625 18.304688 11.625 L 19.390625 11.625 C 19.605469 12.125 20.070312 12.464844 20.628906 12.464844 L 20.972656 12.464844 C 21.714844 12.464844 22.335938 11.84375 22.335938 11.097656 L 22.335938 9.453125 C 22.335938 7.679688 20.878906 6.222656 19.078125 6.222656 Z M 17.992188 10.289062 L 17.992188 9.636719 C 17.992188 9.484375 18.117188 9.328125 18.304688 9.328125 L 18.953125 9.328125 C 19.109375 9.328125 19.265625 9.453125 19.265625 9.636719 L 19.265625 10.601562 L 18.304688 10.601562 C 18.117188 10.601562 17.992188 10.445312 17.992188 10.289062 Z M 17.992188 10.289062 " fill-opacity="1" fill-rule="nonzero"/></svg>