<?xml version="1.0" encoding="UTF-8" standalone="no"?>
<!-- Uploaded to: SVG Repo, www.svgrepo.com, Generator: SVG Repo Mixer Tools -->

<svg
   width="43"
   height="43"
   viewBox="0 0 144.00001 144.00001"
   fill="ffffff"
   version="1.1"
   id="svg8"
   sodipodi:docname="instagram.svg"
   inkscape:version="1.2.2 (b0a84865, 2022-12-01)"
   xmlns:inkscape="http://www.inkscape.org/namespaces/inkscape"
   xmlns:sodipodi="http://sodipodi.sourceforge.net/DTD/sodipodi-0.dtd"
   xmlns="http://www.w3.org/2000/svg"
   xmlns:svg="http://www.w3.org/2000/svg">
  <defs
     id="defs12" />
  <sodipodi:namedview
     id="namedview10"
     pagecolor="#ffffff"
     bordercolor="#000000"
     borderopacity="0.25"
     inkscape:showpageshadow="2"
     inkscape:pageopacity="0.0"
     inkscape:pagecheckerboard="0"
     inkscape:deskcolor="#d1d1d1"
     showgrid="false"
     inkscape:zoom="8.1192217"
     inkscape:cx="23.893916"
     inkscape:cy="19.213664"
     inkscape:window-width="1388"
     inkscape:window-height="654"
     inkscape:window-x="0"
     inkscape:window-y="25"
     inkscape:window-maximized="0"
     inkscape:current-layer="svg8" />
  <path
     stroke="#000000"
     stroke-width="12"
     d="m 72.00001,138.00001 c -14.152,0 -24.336,-0.007 -32.276,-0.777 -7.849,-0.761 -12.87,-2.223 -16.877,-4.741 a 36,36 0 0 1 -11.33,-11.329 c -2.5169997,-4.007 -3.9799997,-9.028 -4.7399997,-16.877 -0.77,-7.94 -0.777,-18.124 -0.777,-32.276 0,-14.152 0.007,-24.336 0.777,-32.276 0.76,-7.849 2.223,-12.87 4.7399997,-16.877 a 36,36 0 0 1 11.33,-11.33 c 4.007,-2.5169997 9.028,-3.9799997 16.877,-4.7399997 7.939,-0.77 18.123,-0.777 32.276,-0.777 14.152,0 24.336,0.007 32.276,0.777 7.849,0.76 12.87,2.223 16.877,4.7399997 a 36,36 0 0 1 11.329,11.33 c 2.518,4.007 3.98,9.028 4.741,16.877 0.77,7.94 0.777,18.124 0.777,32.276 0,14.152 -0.007,24.336 -0.777,32.276 -0.761,7.849 -2.223,12.87 -4.741,16.877 a 36,36 0 0 1 -11.329,11.329 c -4.007,2.518 -9.028,3.98 -16.877,4.741 -7.94,0.77 -18.124,0.777 -32.276,0.777 z"
     id="path2"
     style="fill:#ffffff;fill-opacity:0;stroke:#ffffff;stroke-opacity:1" />
  <circle
     cx="72.000008"
     cy="72.000008"
     r="30"
     stroke="#ffffff"
     stroke-width="12"
     id="circle4"
     style="fill:#ffffff;fill-opacity:0.00790513" />
  <circle
     cx="111.00001"
     cy="33.000011"
     r="9"
     fill="#ffffff"
     id="circle6" />
</svg>
