<?xml version="1.0" encoding="UTF-8" standalone="no"?>
<!-- Uploaded to: SVG Repo, www.svgrepo.com, Transformed by: SVG Repo Mixer Tools -->

<svg
   width="45"
   height="45"
   viewBox="0 0 15.99 16.000062"
   fill="ffffff"
   version="1.1"
   id="svg7"
   sodipodi:docname="whatsapp.svg"
   inkscape:version="1.2.2 (b0a84865, 2022-12-01)"
   xmlns:inkscape="http://www.inkscape.org/namespaces/inkscape"
   xmlns:sodipodi="http://sodipodi.sourceforge.net/DTD/sodipodi-0.dtd"
   xmlns="http://www.w3.org/2000/svg"
   xmlns:svg="http://www.w3.org/2000/svg">
  <defs
     id="defs11" />
  <sodipodi:namedview
     id="namedview9"
     pagecolor="#ffffff"
     bordercolor="#000000"
     borderopacity="0.25"
     inkscape:showpageshadow="2"
     inkscape:pageopacity="0.0"
     inkscape:pagecheckerboard="0"
     inkscape:deskcolor="#d1d1d1"
     showgrid="false"
     inkscape:zoom="4.72"
     inkscape:cx="1.3771186"
     inkscape:cy="16.737288"
     inkscape:window-width="1309"
     inkscape:window-height="456"
     inkscape:window-x="0"
     inkscape:window-y="25"
     inkscape:window-maximized="0"
     inkscape:current-layer="svg7" />
  <g
     id="SVGRepo_bgCarrier"
     stroke-width="0"
     transform="translate(-4,-3.9999385)" />
  <g
     id="SVGRepo_tracerCarrier"
     stroke-linecap="round"
     stroke-linejoin="round"
     transform="translate(-4,-3.9999385)" />
  <g
     id="SVGRepo_iconCarrier"
     transform="translate(-4,-3.9999385)">
    <path
       d="M 17.6,6.31999 C 16.8669,5.58141 15.9943,4.99596 15.033,4.59767 14.0716,4.19938 13.0406,3.99622 12,3.99999 10.6089,4.00135 9.24248,4.36819 8.03771,5.06377 6.83294,5.75935 5.83208,6.75926 5.13534,7.96335 4.4386,9.16745 4.07046,10.5335 4.06776,11.9246 4.06507,13.3158 4.42793,14.6832 5.12,15.89 L 4,20 8.2,18.9 c 1.15975,0.6452 2.4629,0.9891 3.79,1 2.1097,10e-5 4.134,-0.8332 5.6322,-2.3184 C 19.1205,16.0965 19.9715,14.0796 19.99,11.97 19.983,10.9173 19.7682,9.87634 19.3581,8.9068 18.948,7.93725 18.3505,7.05819 17.6,6.31999 Z M 12,18.53 c -1.1823,8e-4 -2.34299,-0.317 -3.36,-0.92 L 8.4,17.46 5.91,18.12 6.57,15.69 6.41,15.44 C 5.55925,14.0667 5.24174,12.429 5.51762,10.8372 5.7935,9.24545 6.64361,7.81015 7.9069,6.80322 9.1702,5.79628 10.7589,5.28765 12.3721,5.37368 13.9853,5.4597 15.511,6.13441 16.66,7.26999 c 1.256,1.22819 1.975,2.90351 2,4.66001 -0.0158,1.7559 -0.7245,3.4345 -1.9718,4.6706 C 15.441,17.8366 13.756,18.5301 12,18.53 Z m 3.61,-4.94 c -0.2,-0.1 -1.17,-0.58 -1.35,-0.64 -0.18,-0.06 -0.32,-0.1 -0.45,0.1 -0.1956,0.2681 -0.406,0.5251 -0.63,0.77 -0.11,0.14 -0.23,0.15 -0.43,0 -1.1403,-0.4506 -2.0903,-1.2806 -2.69,-2.35 -0.21,-0.35 0.2,-0.33 0.58,-1.08 0.0281,-0.0541 0.0427,-0.1141 0.0427,-0.175 0,-0.0609 -0.0146,-0.1209 -0.0427,-0.175 0,-0.10001 -0.45,-1.08001 -0.61,-1.47001 -0.16,-0.39 -0.32,-0.33 -0.45,-0.34 H 9.19 C 9.08895,8.23154 8.9894,8.25465 8.898,8.29776 8.8066,8.34087 8.72546,8.403 8.66,8.47999 8.43562,8.69817 8.26061,8.96191 8.14676,9.25343 8.03291,9.54495 7.98287,9.85749 8,10.17 c 0.0627,0.7481 0.34443,1.4611 0.81,2.05 0.8522,1.2758 2.0201,2.3093 3.39,3 0.7185,0.4194 1.5535,0.5948 2.38,0.5 0.2752,-0.0546 0.5359,-0.1665 0.765,-0.3285 0.2292,-0.1619 0.4217,-0.3703 0.565,-0.6115 0.1328,-0.2944 0.1746,-0.6217 0.12,-0.94 -0.09,-0.1 -0.22,-0.15 -0.42,-0.25 z"
       fill="#ffffffff"
       id="path4" />
  </g>
</svg>
