<?xml version="1.0" encoding="UTF-8" standalone="no"?>
<svg
   viewBox="0 0 18 20"
   version="1.1"
   id="svg4"
   sodipodi:docname="balcony.svg"
   width="50"
   height="50"
   fill="#ffffff"
   inkscape:version="1.2.2 (b0a84865, 2022-12-01)"
   xmlns:inkscape="http://www.inkscape.org/namespaces/inkscape"
   xmlns:sodipodi="http://sodipodi.sourceforge.net/DTD/sodipodi-0.dtd"
   xmlns="http://www.w3.org/2000/svg"
   xmlns:svg="http://www.w3.org/2000/svg">
  <defs
     id="defs8" />
  <sodipodi:namedview
     id="namedview6"
     pagecolor="#ffffff"
     bordercolor="#000000"
     borderopacity="0.25"
     inkscape:showpageshadow="2"
     inkscape:pageopacity="0.0"
     inkscape:pagecheckerboard="0"
     inkscape:deskcolor="#d1d1d1"
     showgrid="false"
     inkscape:zoom="9.8333333"
     inkscape:cx="8.3389831"
     inkscape:cy="9.9661017"
     inkscape:window-width="1309"
     inkscape:window-height="456"
     inkscape:window-x="0"
     inkscape:window-y="25"
     inkscape:window-maximized="0"
     inkscape:current-layer="svg4" />
  <path
     d="m 7,8 v 2 H 5 V 8 h 2 m 6,2 V 8 h -2 v 2 h 2 m 5,2 v 8 H 0 V 12 H 1 V 8 C 1,3.58 4.58,0 9,0 c 4.42,0 8,3.58 8,8 v 4 h 1 M 4,14 H 2 v 4 h 2 v -4 m 4,0 H 6 v 4 H 8 V 14 M 8,2.08 C 5.16,2.56 3,5.03 3,8 v 4 H 8 V 2.08 M 10,12 h 5 V 8 C 15,5.03 12.84,2.56 10,2.08 V 12 m 2,2 h -2 v 4 h 2 v -4 m 4,0 h -2 v 4 h 2 z"
     id="path2" />
</svg>
