<?xml version="1.0" encoding="UTF-8" standalone="no"?>
<!-- Uploaded to: SVG Repo, www.svgrepo.com, Generator: SVG Repo Mixer Tools -->

<svg
   fill="#ffffff"
   width="50"
   height="50"
   viewBox="0 -1.05 44.223653 44.223652"
   data-name="Слой 1"
   version="1.1"
   id="svg4"
   sodipodi:docname="kitchen-room-svgrepo-com.svg"
   inkscape:version="1.2.2 (b0a84865, 2022-12-01)"
   xmlns:inkscape="http://www.inkscape.org/namespaces/inkscape"
   xmlns:sodipodi="http://sodipodi.sourceforge.net/DTD/sodipodi-0.dtd"
   xmlns="http://www.w3.org/2000/svg"
   xmlns:svg="http://www.w3.org/2000/svg">
  <defs
     id="defs8" />
  <sodipodi:namedview
     id="namedview6"
     pagecolor="#ffffff"
     bordercolor="#000000"
     borderopacity="0.25"
     inkscape:showpageshadow="2"
     inkscape:pageopacity="0.0"
     inkscape:pagecheckerboard="0"
     inkscape:deskcolor="#d1d1d1"
     showgrid="false"
     inkscape:zoom="0.295"
     inkscape:cx="379.66102"
     inkscape:cy="383.05085"
     inkscape:window-width="1309"
     inkscape:window-height="456"
     inkscape:window-x="0"
     inkscape:window-y="25"
     inkscape:window-maximized="0"
     inkscape:current-layer="svg4" />
  <path
     d="m 8.2754343,-1.05 a 0.91958465,1.0001 0 0 0 -0.9194927,1 V 3.434375 L 1.303812,8.1355469 A 0.91958465,1.0001 0 0 0 0.9194927,8.95 v 4 a 0.91958465,1.0001 0 0 0 0.9194927,1 H 22.067825 a 0.91958465,1.0001 0 0 0 0.919493,-1 v -4 A 0.91958465,1.0001 0 0 0 22.602998,8.1355469 L 16.550869,3.4363281 V -0.05 a 0.91958465,1.0001 0 0 0 -0.919493,-1 z m 0.9194927,2 h 5.516956 v 3 a 0.91958465,1.0001 0 0 0 0.38432,0.8144531 L 21.148332,9.463672 V 11.95 H 2.7584781 V 9.463672 L 8.8106078,4.7644531 A 0.91958465,1.0001 0 0 0 9.194927,3.95 Z m -4.1377171,19 c -0.6015691,0 -1.1054118,0.418077 -1.2948325,1 H 0.9194927 A 0.91958465,1.0001 0 0 0 0,21.95 v 22 a 0.91958465,1.0001 0 0 0 0.9194927,1 H 43.304155 a 0.91958465,1.0001 0 0 0 0.919493,-1 v -22 a 0.91958465,1.0001 0 0 0 -0.919493,-1 H 20.144433 c -0.189421,-0.581923 -0.693264,-1 -1.294833,-1 z m -3.2182245,3 H 5.0572099 18.8496 22.155823 v 20 H 1.8389854 Z m 22.1558226,0 h 18.389854 v 6 H 23.994808 Z m -19.3973445,2 a 0.91958465,1.0001 0 0 0 -0.9194927,1 v 14 a 0.91958465,1.0001 0 0 0 0.9194927,1 H 19.309347 a 0.91958465,1.0001 0 0 0 0.919492,-1 v -14 a 0.91958465,1.0001 0 0 0 -0.919492,-1 z m 22.9873175,0 a 0.91958465,1.0001 0 1 0 0,2 h 11.033912 a 0.91958465,1.0001 0 1 0 0,-2 z m -22.0678248,2 H 18.389854 v 12 H 5.5169562 Z m 18.4778518,4 h 18.389854 v 12 H 23.994808 Z m 3.575606,2.986328 A 0.91958465,1.0001 0 0 0 26.665288,34.95 v 5 a 0.91958465,1.0001 0 1 0 1.838986,0 v -5 a 0.91958465,1.0001 0 0 0 -0.93386,-1.013672 z"
     id="path2"
     style="stroke-width:0.958902" />
</svg>
