<?xml version="1.0" encoding="UTF-8" standalone="no"?>
<!-- Created with Inkscape (http://www.inkscape.org/) -->

<svg
   width="244.41919mm"
   height="27.626221mm"
   viewBox="0 0 244.41919 27.626221"
   version="1.1"
   id="svg5"
   inkscape:version="1.2.2 (b0a84865, 2022-12-01)"
   sodipodi:docname="lns-name.svg"
   xmlns:inkscape="http://www.inkscape.org/namespaces/inkscape"
   xmlns:sodipodi="http://sodipodi.sourceforge.net/DTD/sodipodi-0.dtd"
   xmlns="http://www.w3.org/2000/svg"
   xmlns:svg="http://www.w3.org/2000/svg">
  <sodipodi:namedview
     id="namedview7"
     pagecolor="#ffffff"
     bordercolor="#000000"
     borderopacity="0.25"
     inkscape:showpageshadow="2"
     inkscape:pageopacity="0.0"
     inkscape:pagecheckerboard="0"
     inkscape:deskcolor="#d1d1d1"
     inkscape:document-units="mm"
     showgrid="false"
     inkscape:zoom="0.51289607"
     inkscape:cx="874.44616"
     inkscape:cy="126.73133"
     inkscape:window-width="1309"
     inkscape:window-height="456"
     inkscape:window-x="0"
     inkscape:window-y="25"
     inkscape:window-maximized="0"
     inkscape:current-layer="layer1" />
  <defs
     id="defs2" />
  <g
     inkscape:label="Layer 1"
     inkscape:groupmode="layer"
     id="layer1"
     transform="translate(-35.745144,-51.131767)">
    <g
       aria-label="Luna Nuova Suites"
       id="text1043"
       style="font-size:3.175px;opacity:0.9;fill:#ffffff;stroke:#000000;stroke-width:0.670277;fill-opacity:1">
      <path
         d="m 52.999905,78.013847 q -1.007691,0 -2.046387,-0.186035 -1.023193,-0.170532 -2.077393,-0.465088 -1.054199,-0.279052 -2.108398,-0.620117 -1.054199,-0.341064 -2.077393,-0.666626 -1.224731,0.744141 -2.557983,1.16272 -1.333252,0.434082 -2.80603,0.434082 -1.255738,0 -1.922364,-0.449585 -0.666626,-0.449585 -0.666626,-1.193726 0,-0.976684 1.085205,-1.503784 1.085206,-0.527099 3.286622,-0.527099 0.961181,0 1.937866,0.139526 0.976684,0.139526 1.984375,0.356567 0.976684,-0.852661 1.860351,-1.922363 0.883667,-1.069702 1.720826,-2.294434 -0.635621,0.07752 -1.286744,0.124024 -0.651123,0.03101 -1.317749,0.03101 -2.43396,0 -4.34082,-0.573609 -1.90686,-0.589111 -3.224609,-1.596801 -1.317749,-1.023194 -2.015381,-2.387452 -0.682129,-1.37976 -0.682129,-2.961059 0,-1.860352 0.713135,-3.302124 0.713134,-1.441773 1.953369,-2.418457 1.255737,-0.992188 2.945556,-1.503784 1.68982,-0.5271 3.627686,-0.5271 1.224731,0 2.232422,0.186035 1.00769,0.186035 1.736328,0.403076 0.744141,0.217041 1.16272,0.418579 0.418579,0.201539 0.465088,0.217041 l -0.403077,0.697632 q -0.0155,0 -0.387573,-0.170532 -0.37207,-0.186035 -1.023193,-0.387573 -0.651123,-0.201538 -1.550293,-0.372071 -0.89917,-0.170532 -1.937866,-0.170532 -1.829346,0 -3.286621,0.542603 -1.441773,0.527099 -2.449463,1.457275 -0.992188,0.930176 -1.53479,2.185913 -0.5271,1.240235 -0.5271,2.651001 0,1.581299 0.728638,2.837036 0.728637,1.240235 1.953369,2.108399 1.224731,0.852661 2.837036,1.302246 1.627808,0.449585 3.410645,0.449585 0.728637,0 1.426269,-0.04651 0.713135,-0.04651 1.410767,-0.155029 1.100708,-1.720825 2.123901,-3.565674 1.038696,-1.844849 2.06189,-3.612183 1.023193,-1.767334 2.061889,-3.348632 1.038697,-1.596802 2.154908,-2.790528 1.131713,-1.193725 2.371948,-1.891357 1.240234,-0.713135 2.666504,-0.713135 0.558105,0 1.038696,0.186035 0.480591,0.170532 0.837158,0.542603 0.356568,0.356567 0.558106,0.914673 0.201538,0.558105 0.201538,1.302246 0,1.209228 -0.465088,2.557983 -0.465088,1.333252 -1.348755,2.682007 -0.883667,1.333252 -2.154907,2.635498 -1.271241,1.286743 -2.883545,2.387451 -1.612305,1.100708 -3.534668,1.968872 -1.922363,0.852661 -4.092774,1.333252 -1.023193,1.410767 -2.108398,2.666504 -1.085205,1.240234 -2.294434,2.247925 1.178223,0.310058 2.309937,0.666626 1.131714,0.341064 2.139404,0.620117 1.023194,0.294556 1.891358,0.480591 0.868164,0.201538 1.53479,0.201538 0.992187,0 1.90686,-0.341065 0.930176,-0.341064 1.844849,-1.209228 l 0.63562,0.496094 q -0.0155,0.0155 -0.170532,0.201538 -0.15503,0.170532 -0.465088,0.418579 -0.310059,0.26355 -0.775147,0.542602 -0.465088,0.294556 -1.100708,0.542603 -0.620117,0.248047 -1.426269,0.403076 -0.79065,0.170532 -1.767334,0.170532 z m 9.751342,-23.765991 q -0.868164,0 -1.720825,0.620117 -0.852661,0.620118 -1.720825,1.68982 -0.868164,1.054199 -1.767334,2.495971 -0.883667,1.42627 -1.829346,3.054077 -0.945678,1.612305 -1.968872,3.33313 -1.023193,1.720826 -2.139404,3.379639 1.860352,-0.511597 3.534668,-1.333252 1.689819,-0.821655 3.116089,-1.844849 1.441772,-1.023193 2.588989,-2.185913 1.16272,-1.178222 1.968872,-2.402954 0.821655,-1.224731 1.255737,-2.418457 0.434082,-1.209228 0.434082,-2.309936 0,-0.573609 -0.139526,-0.961182 -0.139526,-0.403076 -0.387573,-0.651123 -0.232544,-0.248047 -0.558106,-0.356567 -0.310058,-0.108521 -0.666626,-0.108521 z M 39.233303,76.866631 q 1.147217,0 2.17041,-0.325562 1.023194,-0.310059 1.984375,-0.868164 -1.023193,-0.294556 -1.984375,-0.480591 -0.945678,-0.186035 -1.829345,-0.186035 -1.0542,0 -1.550293,0.310059 -0.480591,0.310058 -0.480591,0.713134 0,0.124024 0.06201,0.26355 0.07752,0.155029 0.26355,0.279053 0.186035,0.124023 0.511597,0.201538 0.325561,0.09302 0.852661,0.09302 z"
         style="font-size:31.75px;font-family:Parisienne;-inkscape-font-specification:'Parisienne, Normal';stroke:none;stroke-width:0.670278;fill:#ffffff;fill-opacity:1"
         id="path921" />
      <path
         d="m 68.208279,72.634331 q -0.713135,0.837158 -1.410767,1.550293 -0.697632,0.697632 -1.395264,1.209228 -0.682129,0.496094 -1.364257,0.775147 -0.682129,0.294555 -1.379761,0.294555 -0.589112,0 -1.069702,-0.217041 -0.465088,-0.201538 -0.806153,-0.573608 -0.356567,-0.387573 -0.542602,-0.930176 -0.186035,-0.558105 -0.186035,-1.240234 0,-1.069702 0.48059,-2.201416 0.465088,-1.131714 1.178223,-2.201416 0.728638,-1.069702 1.596802,-2.030884 0.883667,-0.961182 1.674316,-1.705322 l 0.666626,0.465088 q -0.558105,0.821655 -1.255737,1.860351 -0.682129,1.038696 -1.302246,2.154907 -0.604614,1.100708 -1.023194,2.216919 -0.418579,1.100708 -0.418579,2.046387 0,0.63562 0.232544,1.085205 0.248047,0.449585 0.930176,0.449585 0.744141,0 1.627808,-0.589111 0.89917,-0.589112 1.829345,-1.53479 0.945679,-0.945679 1.875855,-2.123902 0.945679,-1.193725 1.782837,-2.402954 0.837158,-1.209228 1.519287,-2.309936 0.697632,-1.100708 1.131714,-1.875855 l 1.131714,0.558106 q -0.89917,1.767334 -1.736328,3.302124 -0.821656,1.519287 -1.472779,2.744018 -0.63562,1.209229 -1.023193,2.108399 -0.37207,0.89917 -0.37207,1.426269 0,0.217041 0.09302,0.356568 0.09302,0.139526 0.294556,0.139526 0.573608,0.0155 1.255737,-0.496094 0.697632,-0.511596 1.395264,-1.286743 0.713135,-0.775146 1.379761,-1.689819 0.682128,-0.930176 1.224731,-1.736328 l 0.558105,0.434082 q -0.09302,0.155029 -0.387573,0.63562 -0.294555,0.480591 -0.728637,1.100708 -0.434083,0.620117 -0.992188,1.302246 -0.558105,0.682129 -1.178223,1.255737 -0.620117,0.558106 -1.286743,0.930176 -0.666626,0.356567 -1.317749,0.356567 -0.403076,0 -0.728638,-0.139526 -0.310058,-0.139526 -0.527099,-0.37207 -0.217041,-0.232544 -0.341065,-0.542603 -0.124023,-0.310058 -0.124023,-0.651123 0,-0.403076 0.124023,-0.883667 0.139527,-0.480591 0.387574,-1.023193 z"
         style="font-size:31.75px;font-family:Parisienne;-inkscape-font-specification:'Parisienne, Normal';stroke:none;stroke-width:0.670278;fill:#ffffff;fill-opacity:1"
         id="path923" />
      <path
         d="m 87.695461,67.967949 q 0,0.666626 -0.232544,1.364258 -0.232544,0.682129 -0.589111,1.37976 -0.356567,0.682129 -0.759644,1.348755 -0.403076,0.666626 -0.759643,1.286744 -0.356567,0.620117 -0.589111,1.193725 -0.232544,0.558106 -0.232544,1.023193 0,0.356568 0.155029,0.480591 0.155029,0.124024 0.341064,0.124024 0.589112,0 1.317749,-0.573609 0.728638,-0.589111 1.472779,-1.472778 0.759643,-0.883667 1.503784,-1.922363 0.744141,-1.038697 1.348755,-1.968872 l 0.558105,0.434082 q -0.124023,0.186035 -0.449585,0.74414 -0.325561,0.542603 -0.806152,1.255738 -0.480591,0.697631 -1.085205,1.472778 -0.589111,0.759643 -1.27124,1.410767 -0.682129,0.63562 -1.410767,1.054199 -0.713135,0.418579 -1.441772,0.418579 -0.41858,0 -0.759644,-0.139527 -0.341064,-0.139526 -0.589111,-0.387573 -0.232544,-0.248047 -0.372071,-0.573608 -0.139526,-0.341065 -0.139526,-0.713135 0,-0.604614 0.26355,-1.302246 0.279053,-0.713135 0.682129,-1.457275 0.403076,-0.744141 0.883667,-1.488282 0.480591,-0.759643 0.883667,-1.441772 0.403076,-0.682129 0.666626,-1.255737 0.279052,-0.589112 0.279052,-1.007691 0,-0.480591 -0.263549,-0.806152 -0.248047,-0.325562 -0.713135,-0.325562 -0.496094,0 -1.147217,0.418579 -0.651123,0.403077 -1.457275,1.193726 -0.806153,0.790649 -1.767334,1.953369 -0.945679,1.147217 -2.06189,2.619995 -0.63562,0.852661 -1.240234,1.643311 -0.26355,0.341064 -0.5271,0.697632 -0.26355,0.356567 -0.5271,0.713134 -0.263549,0.341065 -0.496093,0.651123 -0.232544,0.325562 -0.418579,0.558106 l -1.364258,-0.558106 1.813843,-2.495971 q 0.387573,-0.5271 0.790649,-1.131714 0.403076,-0.604614 0.790649,-1.240235 0.403077,-0.651123 0.759644,-1.302246 0.356567,-0.651123 0.666626,-1.27124 0.449585,-0.930176 0.620117,-1.53479 0.170532,-0.620117 0.170532,-0.992187 0,-0.418579 -0.155029,-0.542603 -0.155029,-0.139526 -0.434082,-0.139526 -0.294556,0 -0.682129,0.310058 -0.37207,0.294556 -0.775146,0.775147 -0.403077,0.465088 -0.821656,1.069702 -0.403076,0.589111 -0.775146,1.178223 -0.37207,0.589111 -0.697632,1.116211 -0.325562,0.527099 -0.542603,0.852661 l -0.558105,-0.434082 q 0.790649,-1.240235 1.42627,-2.263428 0.651123,-1.038696 1.240234,-1.782837 0.604614,-0.744141 1.16272,-1.147217 0.573608,-0.418579 1.209228,-0.418579 0.341065,0 0.651123,0.139526 0.325562,0.139527 0.558106,0.41858 0.248047,0.263549 0.387573,0.651123 0.139526,0.387573 0.139526,0.89917 0,0.403076 -0.09302,0.837158 0.682129,-0.666626 1.27124,-1.100708 0.589111,-0.434082 1.085205,-0.682129 0.496094,-0.26355 0.914673,-0.37207 0.418579,-0.108521 0.759643,-0.108521 0.294556,0 0.682129,0.108521 0.387574,0.10852 0.728638,0.403076 0.341064,0.294555 0.573608,0.821655 0.248047,0.511597 0.248047,1.333252 z"
         style="font-size:31.75px;font-family:Parisienne;-inkscape-font-specification:'Parisienne, Normal';stroke:none;stroke-width:0.670278;fill:#ffffff;fill-opacity:1"
         id="path925" />
      <path
         d="m 102.99685,65.704521 q -0.20154,0.403076 -0.57361,1.054199 -0.35656,0.651123 -0.77514,1.441773 -0.41858,0.775146 -0.85266,1.627807 -0.41858,0.852662 -0.77515,1.674317 -0.341064,0.806152 -0.573608,1.53479 -0.217041,0.713135 -0.217041,1.209228 0,0.496094 0.186035,0.651123 0.201538,0.139527 0.511597,0.139527 0.449587,0 0.914677,-0.26355 0.48059,-0.26355 0.93017,-0.682129 0.46509,-0.418579 0.89917,-0.945679 0.43408,-0.527099 0.80615,-1.054199 0.38758,-0.542602 0.69764,-1.023193 0.31005,-0.496094 0.5271,-0.837158 l 0.5581,0.434082 q -0.26355,0.496093 -0.62012,1.069702 -0.35656,0.573608 -0.79065,1.16272 -0.41858,0.573608 -0.91467,1.11621 -0.49609,0.542603 -1.0542,0.961182 -0.5426,0.418579 -1.14721,0.666626 -0.60462,0.248047 -1.240239,0.248047 -0.930176,0 -1.364258,-0.558105 -0.434082,-0.558106 -0.434082,-1.441773 0,-0.06201 0,-0.26355 0.0155,-0.217041 0.04651,-0.341064 -0.775147,0.976684 -1.488282,1.612304 -0.697631,0.635621 -1.364257,1.007691 -0.651123,0.37207 -1.271241,0.511597 -0.604614,0.155029 -1.162719,0.155029 -0.589112,0 -1.116211,-0.201538 -0.511597,-0.186035 -0.89917,-0.558106 -0.403076,-0.37207 -0.620117,-0.914673 -0.232544,-0.542602 -0.232544,-1.255737 0,-0.883667 0.403076,-2.015381 0.387573,-1.147216 1.395264,-2.464966 0.852661,-1.131713 1.767334,-1.90686 0.930175,-0.775146 1.813842,-1.240234 0.89917,-0.480591 1.705323,-0.682129 0.806152,-0.201538 1.441772,-0.201538 1.42627,0 2.15491,0.480591 0.72863,0.465087 0.88366,1.441772 0.31006,-0.387573 0.65113,-0.775146 0.34106,-0.387574 0.69763,-0.79065 z m -4.759397,5.891113 q 0.201539,-0.325561 0.496094,-0.821655 0.294556,-0.511596 0.620117,-1.038696 0.325562,-0.542603 0.635621,-1.038696 0.310055,-0.496094 0.542605,-0.837159 0,-0.139526 -0.0465,-0.449585 -0.031,-0.310058 -0.20154,-0.620117 -0.17053,-0.325561 -0.542602,-0.558105 -0.372071,-0.232544 -1.038697,-0.232544 -0.48059,0 -1.085205,0.155029 -0.589111,0.139527 -1.27124,0.496094 -0.666626,0.341064 -1.379761,0.914673 -0.713134,0.573608 -1.426269,1.426269 -1.069702,1.286743 -1.658814,2.58899 -0.573608,1.286743 -0.573608,2.325439 0,0.883667 0.403076,1.364258 0.403076,0.480591 1.147217,0.480591 0.852661,0 1.596802,-0.372071 0.74414,-0.387573 1.395263,-0.992187 0.651123,-0.604614 1.240235,-1.333252 0.589111,-0.744141 1.147216,-1.457276 z"
         style="font-size:31.75px;font-family:Parisienne;-inkscape-font-specification:'Parisienne, Normal';stroke:none;stroke-width:0.670278;fill:#ffffff;fill-opacity:1"
         id="path927" />
      <path
         d="m 158.54385,55.968681 q 0.031,-0.186035 0.0465,-0.356567 0.031,-0.186035 0.031,-0.356567 0,-0.651123 -0.26355,-1.240235 -0.24804,-0.604614 -0.74414,-1.054199 -0.48059,-0.465088 -1.17822,-0.728638 -0.69763,-0.279052 -1.56579,-0.279052 -0.91468,0 -1.93787,0.403076 -1.02319,0.387573 -2.04639,1.37976 -0.99218,0.961182 -2.04638,2.480469 -1.0387,1.503784 -2.0774,3.33313 -1.02319,1.813843 -2.01538,3.829224 -0.97668,2.015381 -1.86035,3.96875 -0.88367,1.953369 -1.62781,3.736206 -0.74414,1.782837 -1.28674,3.147095 -0.5426,1.348754 -0.85266,2.17041 -0.29456,0.821655 -0.31006,0.852661 l -0.79065,-0.201538 q -0.18603,-1.193726 -0.34106,-2.154908 -0.13953,-0.961181 -0.24805,-1.844848 -0.093,-0.883667 -0.13953,-1.751831 -0.0465,-0.868164 -0.0465,-1.860352 0,-0.806152 0.062,-1.844848 0.0775,-1.038697 0.20153,-2.201416 0.13953,-1.16272 0.31006,-2.387452 0.18604,-1.224731 0.38758,-2.402954 0.21704,-1.178222 0.44958,-2.232422 0.23255,-1.069702 0.48059,-1.922363 -1.31775,1.968872 -2.41846,3.96875 -1.0852,1.999878 -2.06188,3.922241 -0.97669,1.922364 -1.89136,3.736206 -0.91467,1.79834 -1.87586,3.379639 -0.96118,1.581299 -2.03088,2.899048 -1.0697,1.317749 -2.35645,2.247925 -1.27124,0.945678 -2.82153,1.457275 -1.55029,0.5271 -3.47266,0.5271 -1.45727,0 -2.75952,-0.403076 -1.28674,-0.403077 -2.26342,-1.131714 -0.97669,-0.728638 -1.53479,-1.767334 -0.57361,-1.038697 -0.57361,-2.294434 0,-1.426269 0.62011,-2.54248 0.60462,-1.131714 1.61231,-1.891358 1.00769,-0.775146 2.32544,-1.178222 1.31775,-0.403077 2.72851,-0.403077 0.80616,0 1.62781,0.108521 0.83716,0.10852 1.62781,0.356567 0.80615,0.248047 1.55029,0.666626 0.74414,0.403076 1.37976,1.007691 l -0.60461,0.542602 q 0,0 -0.34107,-0.279052 -0.32556,-0.294556 -0.99218,-0.635621 -0.65113,-0.341064 -1.65882,-0.620117 -1.00769,-0.294555 -2.35644,-0.294555 -1.08521,0 -2.1084,0.310058 -1.02319,0.310059 -1.82935,0.914673 -0.79065,0.604614 -1.27124,1.488281 -0.48059,0.883667 -0.48059,2.046387 0,1.193726 0.5116,2.139404 0.5116,0.930176 1.36426,1.565796 0.85266,0.651123 1.93786,0.976685 1.08521,0.341064 2.23243,0.341064 1.70532,0 3.08508,-0.573608 1.39526,-0.558106 2.57348,-1.581299 1.19373,-1.023193 2.21692,-2.449463 1.0387,-1.426269 2.01538,-3.147095 0.97669,-1.720825 1.96888,-3.674194 0.99218,-1.968872 2.09289,-4.061768 1.10071,-2.092895 2.37195,-4.263305 1.27124,-2.17041 2.80603,-4.309815 l 0.71314,0.372071 q -0.5116,1.503784 -0.82166,3.1781 -0.31006,1.658814 -0.48059,3.426148 -0.15503,1.751831 -0.21704,3.550171 -0.0465,1.798339 -0.062,3.55017 -0.0155,1.751832 -0.031,3.426148 0,1.658813 -0.0775,3.147095 0.5271,-1.348755 1.27124,-3.147095 0.74414,-1.79834 1.64331,-3.798218 0.89917,-1.999878 1.90686,-4.061767 1.02319,-2.077393 2.07739,-3.96875 1.0697,-1.891358 2.15491,-3.457154 1.10071,-1.581299 2.1549,-2.604492 1.16272,-1.116211 2.32544,-1.565796 1.17823,-0.465088 2.24793,-0.465088 1.0542,0 1.89136,0.356568 0.85266,0.341064 1.44177,0.914673 0.58911,0.558105 0.89917,1.302246 0.31006,0.74414 0.31006,1.53479 0,0.434082 -0.093,0.89917 z"
         style="font-size:31.75px;font-family:Parisienne;-inkscape-font-specification:'Parisienne, Normal';stroke:none;stroke-width:0.670278;fill:#ffffff;fill-opacity:1"
         id="path929" />
      <path
         d="m 153.16433,72.634331 q -0.71313,0.837158 -1.41076,1.550293 -0.69764,0.697632 -1.39527,1.209228 -0.68213,0.496094 -1.36425,0.775147 -0.68213,0.294555 -1.37977,0.294555 -0.58911,0 -1.0697,-0.217041 -0.46509,-0.201538 -0.80615,-0.573608 -0.35657,-0.387573 -0.5426,-0.930176 -0.18604,-0.558105 -0.18604,-1.240234 0,-1.069702 0.48059,-2.201416 0.46509,-1.131714 1.17823,-2.201416 0.72863,-1.069702 1.5968,-2.030884 0.88366,-0.961182 1.67431,-1.705322 l 0.66663,0.465088 q -0.55811,0.821655 -1.25574,1.860351 -0.68213,1.038696 -1.30224,2.154907 -0.60462,1.100708 -1.0232,2.216919 -0.41858,1.100708 -0.41858,2.046387 0,0.63562 0.23255,1.085205 0.24804,0.449585 0.93017,0.449585 0.74414,0 1.62781,-0.589111 0.89917,-0.589112 1.82935,-1.53479 0.94568,-0.945679 1.87585,-2.123902 0.94568,-1.193725 1.78284,-2.402954 0.83716,-1.209228 1.51929,-2.309936 0.69763,-1.100708 1.13171,-1.875855 l 1.13171,0.558106 q -0.89917,1.767334 -1.73632,3.302124 -0.82166,1.519287 -1.47278,2.744018 -0.63562,1.209229 -1.0232,2.108399 -0.37207,0.89917 -0.37207,1.426269 0,0.217041 0.093,0.356568 0.093,0.139526 0.29456,0.139526 0.5736,0.0155 1.25573,-0.496094 0.69764,-0.511596 1.39527,-1.286743 0.71313,-0.775146 1.37976,-1.689819 0.68213,-0.930176 1.22473,-1.736328 l 0.55811,0.434082 q -0.093,0.155029 -0.38758,0.63562 -0.29455,0.480591 -0.72864,1.100708 -0.43408,0.620117 -0.99218,1.302246 -0.55811,0.682129 -1.17823,1.255737 -0.62011,0.558106 -1.28674,0.930176 -0.66663,0.356567 -1.31775,0.356567 -0.40307,0 -0.72864,-0.139526 -0.31005,-0.139526 -0.5271,-0.37207 -0.21704,-0.232544 -0.34106,-0.542603 -0.12402,-0.310058 -0.12402,-0.651123 0,-0.403076 0.12402,-0.883667 0.13953,-0.480591 0.38757,-1.023193 z"
         style="font-size:31.75px;font-family:Parisienne;-inkscape-font-specification:'Parisienne, Normal';stroke:none;stroke-width:0.670278;fill:#ffffff;fill-opacity:1"
         id="path931" />
      <path
         d="m 168.45022,71.797173 q 0.062,0.0155 0.12403,0.0155 0.062,0 0.13952,0 0.43408,0 0.79065,-0.07751 0.35657,-0.09302 0.65112,-0.279053 0.31006,-0.186035 0.58912,-0.480591 0.27905,-0.310058 0.5426,-0.74414 l 0.5581,0.434082 q -0.74414,1.054199 -1.53479,1.472778 -0.79065,0.418579 -1.67431,0.418579 -0.32556,0 -0.57361,-0.06201 -0.66663,1.116211 -1.42627,1.906861 -0.75964,0.775146 -1.55029,1.27124 -0.79065,0.496094 -1.5658,0.713135 -0.77515,0.232544 -1.44177,0.232544 -0.68213,0 -1.27124,-0.248047 -0.57361,-0.232544 -0.99219,-0.682129 -0.41858,-0.449585 -0.65112,-1.069702 -0.23255,-0.620117 -0.23255,-1.395264 0,-0.775146 0.24805,-1.581299 0.24805,-0.806152 0.66663,-1.596802 0.43408,-0.790649 1.00769,-1.519287 0.5736,-0.74414 1.24023,-1.37976 0.66663,-0.63562 1.37976,-1.147217 0.71314,-0.511597 1.42627,-0.837158 l 0.49609,0.651123 q -0.82165,0.589111 -1.67431,1.488281 -0.83716,0.89917 -1.53479,1.968872 -0.68213,1.069702 -1.13172,2.232422 -0.43408,1.147217 -0.43408,2.232422 0,0.976684 0.43408,1.519287 0.43409,0.527099 1.31775,0.527099 0.68213,0 1.34876,-0.279052 0.66662,-0.279053 1.30224,-0.759644 0.63562,-0.480591 1.22474,-1.131714 0.58911,-0.666626 1.11621,-1.410766 -0.44959,-0.26355 -0.79065,-0.697632 -0.34107,-0.449585 -0.57361,-1.007691 -0.23254,-0.573608 -0.35657,-1.224731 -0.10852,-0.651123 -0.10852,-1.333252 0,-0.682129 0.17053,-1.286743 0.17054,-0.604614 0.46509,-1.054199 0.31006,-0.465088 0.71314,-0.728638 0.40307,-0.26355 0.88366,-0.26355 0.43409,0 0.77515,0.232544 0.34106,0.217041 0.57361,0.620117 0.23254,0.387574 0.35657,0.930176 0.12402,0.542603 0.12402,1.16272 0,0.465088 -0.0775,1.023193 -0.0775,0.558106 -0.23254,1.131714 -0.13953,0.558106 -0.35657,1.116211 -0.20154,0.542603 -0.48059,0.976685 z m -2.1084,-3.86023 q 0,0.449585 0.0775,0.976685 0.0775,0.527099 0.24805,1.023193 0.17053,0.496094 0.43408,0.930176 0.26355,0.418579 0.65112,0.666626 0.27905,-0.542603 0.46509,-1.100708 0.20154,-0.573609 0.32556,-1.100708 0.13953,-0.5271 0.18603,-0.976685 0.062,-0.465088 0.062,-0.806152 0,-0.465088 -0.0775,-0.852661 -0.0775,-0.387574 -0.21704,-0.666626 -0.12402,-0.294556 -0.32556,-0.449585 -0.18604,-0.170532 -0.41858,-0.170532 -0.31006,0 -0.57361,0.217041 -0.26355,0.201538 -0.44958,0.558105 -0.18604,0.341064 -0.29456,0.806152 -0.093,0.449585 -0.093,0.945679 z"
         style="font-size:31.75px;font-family:Parisienne;-inkscape-font-specification:'Parisienne, Normal';stroke:none;stroke-width:0.670278;fill:#ffffff;fill-opacity:1"
         id="path933" />
      <path
         d="m 179.48831,70.076347 q -0.24805,-0.542602 -0.38758,-1.131714 -0.12402,-0.589111 -0.12402,-1.224731 0,-0.821655 0.13953,-1.379761 0.15503,-0.573608 0.37207,-0.914673 0.21704,-0.356567 0.46509,-0.511596 0.26355,-0.15503 0.49609,-0.15503 0.20154,0 0.37207,0.09302 0.18604,0.07751 0.32556,0.279053 0.13953,0.201538 0.21704,0.527099 0.093,0.325562 0.093,0.806153 0,1.116211 -0.44958,2.294433 -0.43409,1.178223 -1.17823,2.278931 -0.72864,1.100708 -1.68982,2.077393 -0.96118,0.976684 -1.98437,1.720825 -0.27905,0.201538 -0.65112,0.434082 -0.35657,0.217041 -0.77515,0.418579 -0.40308,0.186035 -0.85266,0.325561 -0.43408,0.124024 -0.85266,0.124024 -1.0387,0 -1.70533,-0.775147 -0.65112,-0.790649 -0.65112,-2.201416 0,-0.651123 0.18604,-1.395263 0.18603,-0.744141 0.51159,-1.519287 0.32556,-0.79065 0.75965,-1.581299 0.43408,-0.79065 0.91467,-1.503784 0.49609,-0.728638 1.02319,-1.364258 0.5271,-0.63562 1.0387,-1.116211 l 0.68213,0.449585 q -0.89917,1.364258 -1.5503,2.651001 -0.65112,1.27124 -1.0852,2.402954 -0.41858,1.131714 -0.63562,2.077392 -0.20154,0.930176 -0.20154,1.612305 0,0.79065 0.20154,1.131714 0.21704,0.325562 0.60461,0.325562 0.37207,0 1.0232,-0.26355 0.66662,-0.279053 1.53479,-0.883667 1.10071,-0.775147 2.09289,-1.829346 1.00769,-1.069702 1.72083,-2.278931 z m 0.49609,-0.775146 q 0.31006,-0.697632 0.48059,-1.441773 0.18604,-0.759643 0.18604,-1.426269 0,-0.465088 -0.0775,-0.666626 -0.0775,-0.201538 -0.12402,-0.232544 -0.0155,0 -0.12402,0.09302 -0.10852,0.09302 -0.24805,0.341064 -0.12402,0.232544 -0.23254,0.666626 -0.093,0.418579 -0.093,1.085205 0,0.387573 0.0465,0.821655 0.062,0.434082 0.18603,0.759644 z"
         style="font-size:31.75px;font-family:Parisienne;-inkscape-font-specification:'Parisienne, Normal';stroke:none;stroke-width:0.670278;fill:#ffffff;fill-opacity:1"
         id="path935" />
      <path
         d="m 194.71218,65.704521 q -0.20153,0.403076 -0.5736,1.054199 -0.35657,0.651123 -0.77515,1.441773 -0.41858,0.775146 -0.85266,1.627807 -0.41858,0.852662 -0.77515,1.674317 -0.34106,0.806152 -0.57361,1.53479 -0.21704,0.713135 -0.21704,1.209228 0,0.496094 0.18604,0.651123 0.20154,0.139527 0.51159,0.139527 0.44959,0 0.91468,-0.26355 0.48059,-0.26355 0.93017,-0.682129 0.46509,-0.418579 0.89917,-0.945679 0.43409,-0.527099 0.80616,-1.054199 0.38757,-0.542602 0.69763,-1.023193 0.31006,-0.496094 0.5271,-0.837158 l 0.5581,0.434082 q -0.26355,0.496093 -0.62011,1.069702 -0.35657,0.573608 -0.79065,1.16272 -0.41858,0.573608 -0.91468,1.11621 -0.49609,0.542603 -1.0542,0.961182 -0.5426,0.418579 -1.14721,0.666626 -0.60462,0.248047 -1.24024,0.248047 -0.93017,0 -1.36426,-0.558105 -0.43408,-0.558106 -0.43408,-1.441773 0,-0.06201 0,-0.26355 0.0155,-0.217041 0.0465,-0.341064 -0.77514,0.976684 -1.48828,1.612304 -0.69763,0.635621 -1.36426,1.007691 -0.65112,0.37207 -1.27124,0.511597 -0.60461,0.155029 -1.16272,0.155029 -0.58911,0 -1.11621,-0.201538 -0.51159,-0.186035 -0.89917,-0.558106 -0.40307,-0.37207 -0.62012,-0.914673 -0.23254,-0.542602 -0.23254,-1.255737 0,-0.883667 0.40308,-2.015381 0.38757,-1.147216 1.39526,-2.464966 0.85266,-1.131713 1.76733,-1.90686 0.93018,-0.775146 1.81385,-1.240234 0.89917,-0.480591 1.70532,-0.682129 0.80615,-0.201538 1.44177,-0.201538 1.42627,0 2.15491,0.480591 0.72864,0.465087 0.88367,1.441772 0.31005,-0.387573 0.65112,-0.775146 0.34106,-0.387574 0.69763,-0.79065 z m -4.75939,5.891113 q 0.20153,-0.325561 0.49609,-0.821655 0.29455,-0.511596 0.62012,-1.038696 0.32556,-0.542603 0.63562,-1.038696 0.31006,-0.496094 0.5426,-0.837159 0,-0.139526 -0.0465,-0.449585 -0.031,-0.310058 -0.20154,-0.620117 -0.17053,-0.325561 -0.5426,-0.558105 -0.37207,-0.232544 -1.0387,-0.232544 -0.48059,0 -1.0852,0.155029 -0.58911,0.139527 -1.27124,0.496094 -0.66663,0.341064 -1.37976,0.914673 -0.71314,0.573608 -1.42627,1.426269 -1.0697,1.286743 -1.65882,2.58899 -0.5736,1.286743 -0.5736,2.325439 0,0.883667 0.40307,1.364258 0.40308,0.480591 1.14722,0.480591 0.85266,0 1.5968,-0.372071 0.74414,-0.387573 1.39526,-0.992187 0.65113,-0.604614 1.24024,-1.333252 0.58911,-0.744141 1.14722,-1.457276 z"
         style="font-size:31.75px;font-family:Parisienne;-inkscape-font-specification:'Parisienne, Normal';stroke:none;stroke-width:0.670278;fill:#ffffff;fill-opacity:1"
         id="path937" />
      <path
         d="m 238.46145,56.666313 q 0,0.992188 -0.38757,2.06189 -0.38757,1.069702 -1.13171,2.108398 -0.74415,1.038697 -1.84485,1.999878 -1.08521,0.961182 -2.51148,1.751831 -1.41076,0.775147 -3.13159,1.333252 -1.72082,0.558106 -3.7207,0.79065 -0.82166,1.503784 -1.70533,2.992065 -0.88366,1.472778 -1.87585,2.821533 -0.99219,1.333252 -2.1084,2.480469 -1.10071,1.131714 -2.37195,1.968872 -1.25573,0.837158 -2.71301,1.302246 -1.44177,0.480591 -3.10058,0.480591 -1.36426,0 -2.65101,-0.403076 -1.27124,-0.387573 -2.26342,-1.147217 -0.97669,-0.744141 -1.5658,-1.829346 -0.58911,-1.085205 -0.58911,-2.480468 0,-1.503785 0.5581,-2.619996 0.54261,-1.116211 1.44178,-1.860351 0.91467,-0.744141 2.06189,-1.100708 1.14721,-0.37207 2.34094,-0.37207 0.91467,0 1.79834,0.186035 0.89917,0.170532 1.70532,0.496093 0.82166,0.325562 1.51929,0.775147 0.71313,0.449585 1.25574,0.992187 l -0.46509,0.496094 q -0.37207,-0.356567 -0.88367,-0.682129 -0.49609,-0.325561 -1.14722,-0.573608 -0.65112,-0.26355 -1.42627,-0.403076 -0.77514,-0.15503 -1.67431,-0.15503 -1.0387,0 -2.01538,0.356568 -0.97669,0.341064 -1.73633,1.00769 -0.75964,0.651123 -1.22473,1.612305 -0.46509,0.945679 -0.46509,2.17041 0,0.992188 0.38757,1.860352 0.40308,0.852661 1.11621,1.472778 0.72864,0.63562 1.70533,0.992187 0.99218,0.356568 2.18591,0.356568 1.36426,0 2.55798,-0.434082 1.20923,-0.418579 2.24793,-1.178223 1.0542,-0.74414 1.98437,-1.782837 0.94568,-1.038696 1.78284,-2.263427 0.85266,-1.240235 1.62781,-2.604493 0.77514,-1.364257 1.53479,-2.790527 h -0.41858 q -2.60449,0 -4.69739,-0.5271 -2.07739,-0.542602 -3.55017,-1.472778 -1.45728,-0.930176 -2.24793,-2.17041 -0.77514,-1.255737 -0.77514,-2.69751 0,-1.441772 0.5581,-2.54248 0.55811,-1.100708 1.51929,-1.844849 0.96118,-0.744141 2.23242,-1.116211 1.27124,-0.387573 2.69751,-0.387573 1.22473,0 2.24793,0.201538 1.02319,0.186035 1.82934,0.496094 0.82166,0.294555 1.44178,0.651123 0.63562,0.356567 1.0697,0.682129 0.43408,0.325561 0.68213,0.573608 0.24804,0.248047 0.32556,0.325562 l -0.5271,0.465087 q -0.0155,-0.0155 -0.44959,-0.387573 -0.43408,-0.387573 -1.22473,-0.837158 -0.79065,-0.465088 -1.90686,-0.837158 -1.11621,-0.387573 -2.48047,-0.387573 -1.37976,0 -2.54248,0.387573 -1.14721,0.387573 -1.98437,1.085205 -0.83716,0.682129 -1.31775,1.627807 -0.46509,0.945679 -0.46509,2.06189 0,1.317749 0.72864,2.402954 0.72864,1.069702 2.01538,1.844849 1.30224,0.759643 3.05408,1.193725 1.76733,0.41858 3.84472,0.41858 h 0.74414 q 0.80616,-1.53479 1.5968,-3.038575 0.80616,-1.519287 1.64332,-2.883545 0.83715,-1.37976 1.73632,-2.557983 0.89917,-1.178223 1.90686,-2.030884 1.00769,-0.868164 2.15491,-1.348755 1.14722,-0.496093 2.46497,-0.496093 0.5426,0 1.0697,0.155029 0.5426,0.139526 0.96118,0.496094 0.43408,0.341064 0.69763,0.914672 0.26355,0.558106 0.26355,1.395264 z m -2.6665,-2.123901 q -0.97669,0 -1.86035,0.434082 -0.88367,0.434082 -1.68982,1.224731 -0.80615,0.775147 -1.5658,1.844849 -0.75964,1.054199 -1.50378,2.325439 -0.72864,1.255738 -1.47278,2.666504 -0.74414,1.395264 -1.51929,2.837036 2.01538,-0.263549 3.65869,-0.852661 1.64331,-0.589111 2.91455,-1.364258 1.27124,-0.790649 2.20142,-1.705322 0.93018,-0.914673 1.53479,-1.829346 0.60461,-0.914672 0.88367,-1.751831 0.29455,-0.852661 0.29455,-1.519287 0,-0.496093 -0.10852,-0.914673 -0.093,-0.418579 -0.31006,-0.728637 -0.21704,-0.310059 -0.5736,-0.480591 -0.35657,-0.186035 -0.88367,-0.186035 z"
         style="font-size:31.75px;font-family:Parisienne;-inkscape-font-specification:'Parisienne, Normal';stroke:none;stroke-width:0.670278;fill:#ffffff;fill-opacity:1"
         id="path939" />
      <path
         d="m 238.86453,72.634331 q -0.71314,0.837158 -1.41077,1.550293 -0.69763,0.697632 -1.39526,1.209228 -0.68213,0.496094 -1.36426,0.775147 -0.68213,0.294555 -1.37976,0.294555 -0.58911,0 -1.0697,-0.217041 -0.46509,-0.201538 -0.80615,-0.573608 -0.35657,-0.387573 -0.54261,-0.930176 -0.18603,-0.558105 -0.18603,-1.240234 0,-1.069702 0.48059,-2.201416 0.46509,-1.131714 1.17822,-2.201416 0.72864,-1.069702 1.5968,-2.030884 0.88367,-0.961182 1.67432,-1.705322 l 0.66663,0.465088 q -0.55811,0.821655 -1.25574,1.860351 -0.68213,1.038696 -1.30225,2.154907 -0.60461,1.100708 -1.02319,2.216919 -0.41858,1.100708 -0.41858,2.046387 0,0.63562 0.23254,1.085205 0.24805,0.449585 0.93018,0.449585 0.74414,0 1.62781,-0.589111 0.89917,-0.589112 1.82934,-1.53479 0.94568,-0.945679 1.87586,-2.123902 0.94568,-1.193725 1.78283,-2.402954 0.83716,-1.209228 1.51929,-2.309936 0.69763,-1.100708 1.13171,-1.875855 l 1.13172,0.558106 q -0.89917,1.767334 -1.73633,3.302124 -0.82165,1.519287 -1.47278,2.744018 -0.63562,1.209229 -1.02319,2.108399 -0.37207,0.89917 -0.37207,1.426269 0,0.217041 0.093,0.356568 0.093,0.139526 0.29455,0.139526 0.57361,0.0155 1.25574,-0.496094 0.69763,-0.511596 1.39526,-1.286743 0.71314,-0.775146 1.37976,-1.689819 0.68213,-0.930176 1.22473,-1.736328 l 0.55811,0.434082 q -0.093,0.155029 -0.38757,0.63562 -0.29456,0.480591 -0.72864,1.100708 -0.43408,0.620117 -0.99219,1.302246 -0.5581,0.682129 -1.17822,1.255737 -0.62012,0.558106 -1.28674,0.930176 -0.66663,0.356567 -1.31775,0.356567 -0.40308,0 -0.72864,-0.139526 -0.31006,-0.139526 -0.5271,-0.37207 -0.21704,-0.232544 -0.34106,-0.542603 -0.12403,-0.310058 -0.12403,-0.651123 0,-0.403076 0.12403,-0.883667 0.13952,-0.480591 0.38757,-1.023193 z"
         style="font-size:31.75px;font-family:Parisienne;-inkscape-font-specification:'Parisienne, Normal';stroke:none;stroke-width:0.670278;fill:#ffffff;fill-opacity:1"
         id="path941" />
      <path
         d="m 252.36758,62.262871 q 0,0.310058 -0.15503,0.651123 -0.15503,0.325561 -0.40308,0.589111 -0.23254,0.26355 -0.52709,0.434082 -0.29456,0.170532 -0.58912,0.170532 -0.26355,0 -0.40307,-0.186035 -0.13953,-0.201538 -0.13953,-0.480591 0,-0.248046 0.093,-0.589111 0.093,-0.341064 0.27905,-0.63562 0.18604,-0.310059 0.44959,-0.5271 0.26355,-0.217041 0.60461,-0.217041 0.32556,0 0.55811,0.248047 0.23254,0.248047 0.23254,0.542603 z m -2.89905,3.44165 q -0.20154,0.403076 -0.57361,1.069702 -0.35656,0.651123 -0.77514,1.441773 -0.41858,0.775146 -0.85266,1.64331 -0.43409,0.852661 -0.79065,1.674317 -0.34107,0.806152 -0.55811,1.519287 -0.21704,0.713135 -0.21704,1.209228 0,0.449585 0.18604,0.620118 0.18603,0.155029 0.5271,0.155029 0.63562,0 1.24023,-0.418579 0.60461,-0.418579 1.19373,-1.085205 0.60461,-0.682129 1.17822,-1.550293 0.57361,-0.868164 1.14721,-1.751831 l 0.55811,0.434082 q -0.44958,0.806152 -1.02319,1.720825 -0.55811,0.914673 -1.25574,1.705322 -0.69763,0.775147 -1.53479,1.286743 -0.83716,0.511597 -1.82935,0.511597 -0.93017,0 -1.42627,-0.558105 -0.49609,-0.558106 -0.49609,-1.441773 0,-1.038696 0.48059,-2.17041 0.48059,-1.131714 1.19373,-2.232422 0.72863,-1.116211 1.56579,-2.139404 0.85266,-1.023194 1.5658,-1.860352 z"
         style="font-size:31.75px;font-family:Parisienne;-inkscape-font-specification:'Parisienne, Normal';stroke:none;stroke-width:0.670278;fill:#ffffff;fill-opacity:1"
         id="path943" />
      <path
         d="m 254.32095,63.224052 q 0.15503,-0.263549 0.5426,-0.914672 0.40308,-0.651123 0.93018,-1.441773 0.5426,-0.790649 1.16272,-1.581299 0.63562,-0.806152 1.24023,-1.364258 l 0.69763,0.41858 q -0.66662,1.100708 -1.36425,2.340942 -0.69764,1.224731 -1.37976,2.54248 h 5.05395 l -0.31006,0.806153 h -5.16247 q -0.69764,1.395263 -1.31775,2.775024 -0.60462,1.379761 -1.06971,2.635498 -0.46508,1.255738 -0.72863,2.356446 -0.26355,1.085205 -0.26355,1.891357 0,1.00769 0.46509,1.457275 0.46508,0.434082 1.14721,0.434082 0.60462,0 1.24024,-0.356567 0.63562,-0.37207 1.24023,-0.930176 0.62012,-0.558105 1.16272,-1.224731 0.55811,-0.666626 0.97669,-1.255738 0.43408,-0.589111 0.71313,-1.023193 0.27905,-0.449585 0.34106,-0.558105 l 0.57361,0.434082 q -0.5426,0.89917 -1.22473,1.90686 -0.68213,1.00769 -1.51929,1.875855 -0.82165,0.852661 -1.79834,1.426269 -0.97668,0.558106 -2.10839,0.558106 -0.69764,0 -1.22474,-0.248047 -0.51159,-0.248047 -0.86816,-0.682129 -0.35657,-0.449585 -0.5271,-1.054199 -0.18603,-0.604615 -0.18603,-1.31775 0,-0.465087 0.15503,-1.317749 0.13952,-0.852661 0.49609,-2.01538 0.35657,-1.178223 0.94568,-2.635498 0.60461,-1.457276 1.51928,-3.131592 h -2.57348 l 0.31006,-0.806153 z"
         style="font-size:31.75px;font-family:Parisienne;-inkscape-font-specification:'Parisienne, Normal';stroke:none;stroke-width:0.670278;fill:#ffffff;fill-opacity:1"
         id="path945" />
      <path
         d="m 260.81668,72.479301 q -0.031,0.186036 -0.0465,0.372071 -0.0155,0.186035 -0.0155,0.37207 0,0.558106 0.15502,1.069702 0.17054,0.496094 0.4806,0.883667 0.32556,0.372071 0.79064,0.589112 0.4806,0.217041 1.08521,0.217041 2.03088,0 3.92224,-1.379761 1.89136,-1.379761 3.76721,-4.371826 l 0.5271,0.465088 q -1.02319,1.705322 -2.07739,2.883544 -1.0542,1.16272 -2.1084,1.891358 -1.03869,0.728638 -2.04639,1.054199 -1.00769,0.325562 -1.92236,0.325562 -0.66662,0 -1.41076,-0.186036 -0.74415,-0.186035 -1.37977,-0.620117 -0.62011,-0.434082 -1.02319,-1.162719 -0.41858,-0.728638 -0.41858,-1.813843 0,-1.16272 0.40308,-2.232422 0.38757,-1.085205 1.02319,-2.015381 0.63562,-0.930176 1.45728,-1.689819 0.82165,-0.775147 1.65881,-1.317749 0.85266,-0.542603 1.65881,-0.837159 0.80616,-0.310058 1.42627,-0.310058 0.40308,0 0.82166,0.124023 0.41858,0.124024 0.74414,0.387574 0.34106,0.263549 0.5426,0.697631 0.21704,0.434082 0.21704,1.038697 0,0.821655 -0.38757,1.550293 -0.37207,0.713134 -1.00769,1.333252 -0.63562,0.604614 -1.47278,1.100708 -0.83716,0.48059 -1.75183,0.821655 -0.91467,0.341064 -1.84485,0.542602 -0.93017,0.201539 -1.76733,0.217041 z m 0.12402,-0.666626 q 1.0387,-0.10852 1.95337,-0.434082 0.91467,-0.325561 1.67432,-0.790649 0.75964,-0.480591 1.34875,-1.038696 0.60462,-0.558106 1.00769,-1.131714 0.40308,-0.573609 0.62012,-1.100708 0.21704,-0.5271 0.21704,-0.945679 0,-0.418579 -0.23254,-0.666626 -0.21705,-0.248047 -0.5271,-0.248047 -0.68213,0 -1.53479,0.496094 -0.85267,0.480591 -1.70533,1.348755 -0.85266,0.852661 -1.6123,2.015381 -0.74414,1.16272 -1.20923,2.495971 z"
         style="font-size:31.75px;font-family:Parisienne;-inkscape-font-specification:'Parisienne, Normal';stroke:none;stroke-width:0.670278;fill:#ffffff;fill-opacity:1"
         id="path947" />
      <path
         d="m 275.93203,63.84417 q -0.0775,0.139526 -0.20153,0.310058 -0.12403,0.15503 -0.24805,0.372071 -0.10852,0.201538 -0.20154,0.48059 -0.0775,0.279053 -0.0775,0.666626 0,0.325562 0.15503,0.883667 0.17053,0.558106 0.35656,1.286743 0.18604,0.713135 0.34107,1.565796 0.17053,0.837159 0.17053,1.736328 0,1.31775 -0.35657,2.32544 -0.35657,1.00769 -0.94568,1.720825 1.20923,-0.651123 2.37195,-1.860351 1.16272,-1.224732 2.34094,-3.100586 l 0.5271,0.465088 q -0.66662,1.100708 -1.51928,2.185913 -0.83716,1.069702 -1.84485,1.937866 -1.00769,0.852661 -2.17041,1.379761 -1.16272,0.542602 -2.46497,0.542602 -1.16272,0 -1.95337,-0.558105 -0.80615,-0.542603 -0.99219,-1.643311 l 0.55811,-0.10852 q 0,0.09302 0.093,0.310058 0.0775,0.201538 0.26355,0.403076 0.18603,0.201538 0.51159,0.356568 0.31006,0.155029 0.77515,0.155029 0.62012,0 1.10071,-0.279053 0.48059,-0.294555 0.83716,-0.759643 0.35656,-0.465088 0.60461,-1.054199 0.24805,-0.604615 0.38757,-1.240235 0.15503,-0.63562 0.21705,-1.240234 0.062,-0.604614 0.062,-1.100708 0,-0.496094 -0.0465,-1.100708 -0.031,-0.604614 -0.0775,-1.147217 -0.0465,-0.558106 -0.093,-0.961182 -0.031,-0.418579 -0.031,-0.542602 v -0.03101 q -0.20154,0.217041 -0.48059,0.63562 -0.27905,0.418579 -0.60461,0.914673 -0.31006,0.496094 -0.63562,1.00769 -0.31006,0.511597 -0.57361,0.930176 -0.24805,0.418579 -0.41858,0.697632 -0.15503,0.26355 -0.15503,0.279053 l -0.55811,-0.434082 q 0.0155,-0.0155 0.38758,-0.666626 0.37207,-0.651123 0.97668,-1.643311 0.62012,-1.00769 1.39526,-2.216919 0.77515,-1.224731 1.59681,-2.371948 l 0.62011,0.511597 z"
         style="font-size:31.75px;font-family:Parisienne;-inkscape-font-specification:'Parisienne, Normal';stroke:none;stroke-width:0.670278;fill:#ffffff;fill-opacity:1"
         id="path949" />
    </g>
  </g>
</svg>
